<svg xmlns="http://www.w3.org/2000/svg"><symbol id="user-shield" viewBox="0 0 24 24"><path d="M3.783 2.826L12 1l8.217 1.826a1 1 0 0 1 .783.976v9.987a6 6 0 0 1-2.672 4.992L12 23l-6.328-4.219A6 6 0 0 1 3 13.79V3.802a1 1 0 0 1 .783-.976zM5 4.604v9.185a4 4 0 0 0 1.781 3.328L12 20.597l5.219-3.48A4 4 0 0 0 19 13.79V4.604L12 3.05 5 4.604zM12 11a2.5 2.5 0 1 1 0-5 2.5 2.5 0 0 1 0 5zm-4.473 5a4.5 4.5 0 0 1 8.946 0H7.527z"/></symbol><symbol id="lock" viewBox="0 0 24 24"><path d="M19 10h1a1 1 0 0 1 1 1v10a1 1 0 0 1-1 1H4a1 1 0 0 1-1-1V11a1 1 0 0 1 1-1h1V9a7 7 0 1 1 14 0v1zM5 12v8h14v-8H5zm6 2h2v4h-2v-4zm6-4V9A5 5 0 0 0 7 9v1h10z"/></symbol><symbol id="date" viewBox="0 0 24 24"><path d="M17 3h4a1 1 0 0 1 1 1v16a1 1 0 0 1-1 1H3a1 1 0 0 1-1-1V4a1 1 0 0 1 1-1h4V1h2v2h6V1h2v2zm-2 2H9v2H7V5H4v4h16V5h-3v2h-2V5zm5 6H4v8h16v-8zM6 14h2v2H6v-2zm4 0h8v2h-8v-2z"/></symbol><symbol id="deal" viewBox="0 0 24 24"><path d="M12 20a8 8 0 1 0 0-16 8 8 0 0 0 0 16zm0 2C6.477 22 2 17.523 2 12S6.477 2 12 2s10 4.477 10 10-4.477 10-10 10zm0-6a4 4 0 1 0 0-8 4 4 0 0 0 0 8zm0 2a6 6 0 1 1 0-12 6 6 0 0 1 0 12zm0-4a2 2 0 1 1 0-4 2 2 0 0 1 0 4z"/></symbol><symbol id="leads" viewBox="0 0 24 24"><path d="M4 2h16a1 1 0 0 1 1 1v19.276a.5.5 0 0 1-.704.457L12 19.03l-8.296 3.702A.5.5 0 0 1 3 22.276V3a1 1 0 0 1 1-1zm15 17.965V4H5v15.965l7-3.124 7 3.124zM12 13.5l-2.939 1.545.561-3.272-2.377-2.318 3.286-.478L12 6l1.47 2.977 3.285.478-2.377 2.318.56 3.272L12 13.5z"/></symbol><symbol id="state" viewBox="0 0 24 24"><path d="M9.536 13H7.329c-.412 1.166-1.523 2-2.829 2-1.657 0-3-1.343-3-3s1.343-3 3-3c1.306 0 2.418.835 2.83 2h2.206L13 5h3.17c.412-1.165 1.524-2 2.83-2 1.657 0 3 1.343 3 3s-1.343 3-3 3c-1.306 0-2.417-.834-2.829-2h-2.017l-2.886 4.999L14.155 17h2.016c.411-1.165 1.523-2 2.829-2 1.657 0 3 1.343 3 3s-1.343 3-3 3c-1.306 0-2.417-.834-2.829-2H13l-3.464-6zM19 17c-.552 0-1 .448-1 1s.448 1 1 1 1-.448 1-1-.448-1-1-1zM4.5 11c-.552 0-1 .448-1 1s.448 1 1 1 1-.448 1-1-.448-1-1-1zM19 5c-.552 0-1 .448-1 1s.448 1 1 1 1-.448 1-1-.448-1-1-1z"/></symbol></svg>
