<?xml version="1.0" standalone="no"?>
<!DOCTYPE svg PUBLIC "-//W3C//DTD SVG 20010904//EN"
 "http://www.w3.org/TR/2001/REC-SVG-20010904/DTD/svg10.dtd">
<svg version="1.0" xmlns="http://www.w3.org/2000/svg"
 width="512.000000pt" height="512.000000pt" viewBox="0 0 512.000000 512.000000"
 preserveAspectRatio="xMidYMid meet">
<metadata>
Created by potrace 1.11, written by Peter Selinger 2001-2013
</metadata>
<g transform="translate(0.000000,512.000000) scale(0.100000,-0.100000)"
fill="#000000" stroke="none">
<path d="M2317 5104 c-1 -1 -65 -5 -142 -9 -77 -3 -153 -8 -170 -10 -147 -15
-215 -24 -320 -41 -40 -7 -48 -15 -95 -96 -76 -132 -158 -343 -185 -476 -2 -9
-8 -28 -13 -42 -5 -14 -10 -28 -10 -33 -1 -15 -15 -103 -19 -122 -15 -70 3
-242 32 -311 l14 -33 83 38 c73 34 192 76 238 85 126 25 136 26 215 27 83 0
117 -4 187 -25 59 -17 158 -73 201 -114 82 -78 175 -266 192 -392 41 -289 -38
-559 -213 -725 -50 -49 -184 -121 -242 -131 -19 -3 -57 -9 -85 -14 -55 -9
-299 -6 -355 5 -362 68 -609 296 -733 680 -24 73 -31 99 -42 160 -2 11 -7 31
-10 45 -4 14 -8 90 -9 168 -2 129 3 185 29 310 3 12 7 34 10 48 8 37 60 192
81 239 10 22 18 42 19 45 1 3 23 48 49 100 55 108 189 314 266 408 28 35 49
66 47 69 -11 11 -328 -122 -347 -146 -3 -3 -18 -13 -35 -21 -16 -8 -34 -18
-40 -23 -5 -4 -50 -37 -100 -74 -305 -227 -537 -589 -659 -1025 -19 -68 -37
-136 -40 -153 -14 -68 -17 -84 -31 -165 -23 -137 -33 -228 -40 -365 -10 -178
-5 -405 10 -520 2 -22 7 -64 11 -93 3 -30 12 -84 20 -120 8 -37 19 -87 24
-112 5 -25 16 -70 25 -100 8 -30 17 -62 19 -70 37 -140 142 -365 234 -505 56
-85 51 -78 109 -144 82 -92 96 -106 165 -163 155 -131 328 -215 563 -274 17
-4 32 -8 35 -9 3 0 32 -5 65 -9 32 -4 68 -10 80 -13 11 -2 205 -6 430 -9 723
-8 742 -8 815 -33 186 -64 305 -189 357 -376 3 -11 8 -109 10 -218 5 -195 5
-198 26 -191 37 12 229 100 307 141 154 82 400 236 486 306 10 8 57 46 104 83
115 92 263 232 377 356 56 61 201 242 238 298 17 25 33 47 38 48 4 2 7 10 7
18 0 8 5 14 10 14 6 0 10 5 10 12 0 6 11 26 25 44 14 18 25 35 25 37 0 2 23
44 52 93 50 88 168 330 168 347 0 3 5 18 12 34 6 15 12 33 14 38 1 6 16 49 33
96 34 100 88 313 95 379 3 25 7 54 10 65 22 103 33 385 21 550 -8 119 -13 174
-19 203 -3 15 -8 44 -11 65 -7 54 -34 181 -52 252 -34 135 -138 413 -164 440
-5 5 -9 14 -9 21 0 14 -98 187 -144 254 -178 258 -387 449 -636 582 -76 40
-197 92 -284 119 -77 25 -306 85 -366 95 -25 4 -47 8 -50 9 -3 1 -25 5 -50 9
-25 5 -54 10 -64 12 -11 2 -42 6 -70 9 -28 3 -62 8 -76 10 -111 18 -405 36
-618 39 -79 0 -144 1 -145 0z m1583 -964 c85 -17 210 -77 285 -137 63 -52 185
-190 185 -210 0 -7 4 -13 8 -13 12 0 95 -170 136 -277 31 -82 57 -183 71 -278
7 -41 7 -247 1 -300 -18 -161 -50 -310 -96 -445 -50 -149 -107 -285 -181 -435
-103 -211 -135 -268 -242 -435 -43 -69 -85 -133 -91 -143 -8 -14 -19 -16 -46
-12 -19 3 -48 8 -65 10 -16 3 -36 7 -44 10 -8 3 -30 8 -50 11 -20 3 -42 7 -48
9 -8 3 7 43 46 122 57 115 68 139 109 233 89 203 158 433 188 620 3 19 7 46
10 60 12 71 4 189 -17 243 -13 31 -20 32 -57 14 -133 -68 -284 -108 -418 -112
-187 -5 -324 46 -443 165 -106 108 -188 277 -209 433 -8 66 -8 198 1 247 23
117 74 240 137 326 117 158 328 275 540 300 30 3 56 7 58 9 8 7 176 -4 232
-15z m-1115 -1409 c93 -44 149 -124 148 -211 0 -110 -72 -303 -128 -343 -62
-44 -115 -17 -215 109 -27 34 -77 138 -90 186 -26 98 32 211 135 263 41 20
102 18 150 -4z"/>
<path d="M3442 3453 c-111 -60 -166 -189 -121 -281 20 -39 61 -71 116 -90 39
-13 156 -8 161 7 2 6 9 11 16 11 32 0 84 87 93 156 17 142 -144 262 -265 197z"/>
<path d="M1875 3542 c-64 -13 -130 -99 -149 -193 -14 -69 -5 -110 32 -153 60
-67 174 -94 254 -58 71 31 120 112 113 189 -10 120 -146 238 -250 215z"/>
</g>
</svg>
